<svg id="visual" viewBox="0 0 960 540" width="960" height="540" xmlns="http://www.w3.org/2000/svg" xmlns:xlink="http://www.w3.org/1999/xlink" version="1.1"><g stroke-width="1" stroke-linejoin="bevel"><path d="M501.3 283L458.7 366L540.3 335Z" fill="#297ea6" stroke="#297ea6"></path><path d="M501.3 283L389.7 283L458.7 366Z" fill="#205a7a" stroke="#205a7a"></path><path d="M618 446L621 335L540.3 335Z" fill="#15384f" stroke="#15384f"></path><path d="M540.3 335L615 248L501.3 283Z" fill="#297ea6" stroke="#297ea6"></path><path d="M621 335L615 248L540.3 335Z" fill="#246688" stroke="#246688"></path><path d="M501.3 283L446.7 149L389.7 283Z" fill="#081a28" stroke="#081a28"></path><path d="M393.7 460L530.3 480L458.7 366Z" fill="#15384f" stroke="#15384f"></path><path d="M458.7 366L530.3 480L540.3 335Z" fill="#081a28" stroke="#081a28"></path><path d="M350 427L393.7 460L458.7 366Z" fill="#19435d" stroke="#19435d"></path><path d="M530.3 480L618 446L540.3 335Z" fill="#277297" stroke="#277297"></path><path d="M331 394L350 427L458.7 366Z" fill="#081a28" stroke="#081a28"></path><path d="M615 248L530.3 163L501.3 283Z" fill="#112e42" stroke="#112e42"></path><path d="M389.7 283L331 394L458.7 366Z" fill="#112e42" stroke="#112e42"></path><path d="M530.3 163L446.7 149L501.3 283Z" fill="#112e42" stroke="#112e42"></path><path d="M389.7 283L327 230L331 394Z" fill="#246688" stroke="#246688"></path><path d="M446.7 149L327 230L389.7 283Z" fill="#00101c" stroke="#00101c"></path><path d="M393.7 460L494.3 540L530.3 480Z" fill="#297ea6" stroke="#297ea6"></path><path d="M530.3 480L632 540L618 446Z" fill="#19435d" stroke="#19435d"></path><path d="M405.7 540L494.3 540L393.7 460Z" fill="#297ea6" stroke="#297ea6"></path><path d="M354 125L313 199L327 230Z" fill="#00101c" stroke="#00101c"></path><path d="M188.3 325L238.3 425L331 394Z" fill="#205a7a" stroke="#205a7a"></path><path d="M308 540L393.7 460L350 427Z" fill="#246688" stroke="#246688"></path><path d="M308 540L405.7 540L393.7 460Z" fill="#246688" stroke="#246688"></path><path d="M618 446L725.7 335L621 335Z" fill="#19435d" stroke="#19435d"></path><path d="M621 335L725.7 306L615 248Z" fill="#1d4e6b" stroke="#1d4e6b"></path><path d="M615 248L667 169L530.3 163Z" fill="#1d4e6b" stroke="#1d4e6b"></path><path d="M725.7 335L725.7 306L621 335Z" fill="#0c2435" stroke="#0c2435"></path><path d="M706.7 189L667 169L615 248Z" fill="#277297" stroke="#277297"></path><path d="M530.3 163L532.3 88L446.7 149Z" fill="#205a7a" stroke="#205a7a"></path><path d="M642 121L532.3 88L530.3 163Z" fill="#277297" stroke="#277297"></path><path d="M446.7 149L354 125L327 230Z" fill="#277297" stroke="#277297"></path><path d="M414.7 76L354 125L446.7 149Z" fill="#297ea6" stroke="#297ea6"></path><path d="M494.3 540L632 540L530.3 480Z" fill="#1d4e6b" stroke="#1d4e6b"></path><path d="M618 446L761.7 447L725.7 335Z" fill="#19435d" stroke="#19435d"></path><path d="M725.7 306L706.7 189L615 248Z" fill="#15384f" stroke="#15384f"></path><path d="M667 169L642 121L530.3 163Z" fill="#246688" stroke="#246688"></path><path d="M720.7 95L642 121L667 169Z" fill="#297ea6" stroke="#297ea6"></path><path d="M532.3 88L414.7 76L446.7 149Z" fill="#112e42" stroke="#112e42"></path><path d="M188.3 325L331 394L327 230Z" fill="#00101c" stroke="#00101c"></path><path d="M331 394L238.3 425L350 427Z" fill="#00101c" stroke="#00101c"></path><path d="M238.3 425L308 540L350 427Z" fill="#112e42" stroke="#112e42"></path><path d="M632 540L761.7 447L618 446Z" fill="#277297" stroke="#277297"></path><path d="M838.3 350L829.3 254L725.7 306Z" fill="#0c2435" stroke="#0c2435"></path><path d="M860.3 167L720.7 95L706.7 189Z" fill="#15384f" stroke="#15384f"></path><path d="M188.3 250L327 230L313 199Z" fill="#277297" stroke="#277297"></path><path d="M188.3 250L188.3 325L327 230Z" fill="#15384f" stroke="#15384f"></path><path d="M191.3 201L188.3 250L313 199Z" fill="#0c2435" stroke="#0c2435"></path><path d="M191.3 201L313 199L239.3 59Z" fill="#277297" stroke="#277297"></path><path d="M239.3 59L313 199L354 125Z" fill="#297ea6" stroke="#297ea6"></path><path d="M829.3 254L706.7 189L725.7 306Z" fill="#277297" stroke="#277297"></path><path d="M706.7 189L720.7 95L667 169Z" fill="#1d4e6b" stroke="#1d4e6b"></path><path d="M633 0L535.3 0L532.3 88Z" fill="#00101c" stroke="#00101c"></path><path d="M532.3 88L535.3 0L414.7 76Z" fill="#081a28" stroke="#081a28"></path><path d="M632 540L749.7 540L761.7 447Z" fill="#297ea6" stroke="#297ea6"></path><path d="M633 0L532.3 88L642 121Z" fill="#246688" stroke="#246688"></path><path d="M414.7 76L392.7 0L354 125Z" fill="#0c2435" stroke="#0c2435"></path><path d="M535.3 0L392.7 0L414.7 76Z" fill="#19435d" stroke="#19435d"></path><path d="M838.3 350L725.7 335L761.7 447Z" fill="#081a28" stroke="#081a28"></path><path d="M838.3 350L725.7 306L725.7 335Z" fill="#246688" stroke="#246688"></path><path d="M842.3 440L838.3 350L761.7 447Z" fill="#1d4e6b" stroke="#1d4e6b"></path><path d="M188.3 325L136.7 426L238.3 425Z" fill="#205a7a" stroke="#205a7a"></path><path d="M238.3 425L174.3 540L308 540Z" fill="#00101c" stroke="#00101c"></path><path d="M89.7 265L133.7 354L188.3 325Z" fill="#246688" stroke="#246688"></path><path d="M89.7 265L188.3 325L188.3 250Z" fill="#246688" stroke="#246688"></path><path d="M720.7 95L633 0L642 121Z" fill="#205a7a" stroke="#205a7a"></path><path d="M749.7 540L842.3 440L761.7 447Z" fill="#00101c" stroke="#00101c"></path><path d="M133.7 354L136.7 426L188.3 325Z" fill="#00101c" stroke="#00101c"></path><path d="M290 0L239.3 59L354 125Z" fill="#112e42" stroke="#112e42"></path><path d="M191.3 201L125.7 212L188.3 250Z" fill="#0c2435" stroke="#0c2435"></path><path d="M136.7 426L174.3 540L238.3 425Z" fill="#205a7a" stroke="#205a7a"></path><path d="M108.7 121L125.7 212L191.3 201Z" fill="#15384f" stroke="#15384f"></path><path d="M133.7 354L0 359L136.7 426Z" fill="#19435d" stroke="#19435d"></path><path d="M392.7 0L290 0L354 125Z" fill="#297ea6" stroke="#297ea6"></path><path d="M850.3 0L712.7 0L720.7 95Z" fill="#00101c" stroke="#00101c"></path><path d="M720.7 95L712.7 0L633 0Z" fill="#297ea6" stroke="#297ea6"></path><path d="M829.3 254L860.3 167L706.7 189Z" fill="#1d4e6b" stroke="#1d4e6b"></path><path d="M960 184L860.3 167L829.3 254Z" fill="#246688" stroke="#246688"></path><path d="M960 292L829.3 254L838.3 350Z" fill="#1d4e6b" stroke="#1d4e6b"></path><path d="M125.7 212L89.7 265L188.3 250Z" fill="#081a28" stroke="#081a28"></path><path d="M239.3 59L108.7 121L191.3 201Z" fill="#19435d" stroke="#19435d"></path><path d="M0 165L0 262L89.7 265Z" fill="#0c2435" stroke="#0c2435"></path><path d="M191.3 0L108.7 121L239.3 59Z" fill="#00101c" stroke="#00101c"></path><path d="M960 184L873.3 111L860.3 167Z" fill="#19435d" stroke="#19435d"></path><path d="M860.3 167L873.3 111L720.7 95Z" fill="#112e42" stroke="#112e42"></path><path d="M749.7 540L886.3 540L842.3 440Z" fill="#19435d" stroke="#19435d"></path><path d="M960 379L960 292L838.3 350Z" fill="#297ea6" stroke="#297ea6"></path><path d="M290 0L191.3 0L239.3 59Z" fill="#0c2435" stroke="#0c2435"></path><path d="M0 457L87.7 540L136.7 426Z" fill="#15384f" stroke="#15384f"></path><path d="M136.7 426L87.7 540L174.3 540Z" fill="#1d4e6b" stroke="#1d4e6b"></path><path d="M960 379L838.3 350L842.3 440Z" fill="#246688" stroke="#246688"></path><path d="M960 455L960 379L842.3 440Z" fill="#15384f" stroke="#15384f"></path><path d="M886.3 540L960 455L842.3 440Z" fill="#246688" stroke="#246688"></path><path d="M191.3 0L134.7 0L108.7 121Z" fill="#081a28" stroke="#081a28"></path><path d="M960 55L850.3 0L873.3 111Z" fill="#246688" stroke="#246688"></path><path d="M873.3 111L850.3 0L720.7 95Z" fill="#15384f" stroke="#15384f"></path><path d="M960 292L960 184L829.3 254Z" fill="#246688" stroke="#246688"></path><path d="M89.7 265L0 359L133.7 354Z" fill="#246688" stroke="#246688"></path><path d="M0 262L0 359L89.7 265Z" fill="#277297" stroke="#277297"></path><path d="M89.7 265L125.7 212L0 165Z" fill="#297ea6" stroke="#297ea6"></path><path d="M0 165L125.7 212L108.7 121Z" fill="#205a7a" stroke="#205a7a"></path><path d="M0 359L0 457L136.7 426Z" fill="#297ea6" stroke="#297ea6"></path><path d="M886.3 540L960 540L960 455Z" fill="#00101c" stroke="#00101c"></path><path d="M0 71L0 165L108.7 121Z" fill="#112e42" stroke="#112e42"></path><path d="M0 457L0 540L87.7 540Z" fill="#1d4e6b" stroke="#1d4e6b"></path><path d="M960 184L960 55L873.3 111Z" fill="#277297" stroke="#277297"></path><path d="M134.7 0L0 71L108.7 121Z" fill="#205a7a" stroke="#205a7a"></path><path d="M960 55L960 0L850.3 0Z" fill="#0c2435" stroke="#0c2435"></path><path d="M134.7 0L0 0L0 71Z" fill="#19435d" stroke="#19435d"></path></g></svg>